<?xml version="1.0" encoding="utf-8"?>
<!-- Generator: Adobe Illustrator 17.1.0, SVG Export Plug-In . SVG Version: 6.00 Build 0)  -->
<!DOCTYPE svg PUBLIC "-//W3C//DTD SVG 1.1//EN" "http://www.w3.org/Graphics/SVG/1.1/DTD/svg11.dtd">
<svg version="1.1" id="Layer_1" xmlns="http://www.w3.org/2000/svg" xmlns:xlink="http://www.w3.org/1999/xlink" x="0px" y="0px"
	 viewBox="0 0 180 112" enable-background="new 0 0 180 112" xml:space="preserve">
<rect stroke="#000000" stroke-miterlimit="10" width="180" height="112"/>
<g>
	<path fill="#F5F5F4" d="M152.6,52.5c-0.6,0.1-1.2,0.3-1.8,0.6c-1.1,0.5-2.1,1.2-3.2,1.9c0.1-0.5,0.3-0.9,0.3-1.3
		c0-0.4-0.3-0.9-0.6-0.9c-0.4,0-0.5,0.3-0.6,0.5c-0.4,0.6-0.7,1.3-1.1,1.9c-0.1,0.1-0.1,0.3-0.3,0.3c-0.4,0-0.6,0.2-0.9,0.4
		c-1.1,0.8-2.2,1.4-3.4,2c-0.6,0.3-1.2,0.5-1.9,0.5c-0.5,0-0.7-0.2-0.8-0.7c-0.1-0.7,0.1-1.4,0.4-2.1c0.3-0.7,0.6-1.4,0.7-2.1
		c0.3-1.7-0.9-3.2-2.5-3.1c-0.8,0-1.5,0.4-2.1,0.8c-1.2,0.9-2.1,2-2.8,3.2c-0.8,1.3-1.5,2.7-1.6,4.3c-0.1,0.8,0.1,1.5,0.8,1.9
		c1,0.7,2,0.5,3,0c1-0.5,1.7-1.3,2.5-2.1c0.2-0.2,0.3-0.4,0.6,0c0.4,0.7,1.1,1,1.9,1.1c1.1,0.1,2.1-0.2,3.1-0.7
		c0.7-0.3,1.3-0.7,2-1.1c-0.2,0.4-0.4,0.9-0.6,1.3c-0.1,0.2-0.1,0.4,0.1,0.6c0.2,0.2,0.4,0.2,0.6,0.2c0.3-0.1,0.5-0.2,0.8-0.4
		c0.5-0.4,1-0.8,1.4-1.3c1.2-1.2,2.5-2.5,3.9-3.6c0.5-0.4,1-0.7,1.6-0.9c0.4-0.1,0.6,0,0.6,0.4c0,0.3-0.1,0.7-0.2,1
		c-0.3,0.9-0.8,1.7-1.1,2.5c-0.4,0.9-0.7,1.7-0.7,2.7c0,0.4,0.2,0.6,0.5,0.6c0.3,0.1,0.5-0.2,0.6-0.4c0.1-0.2,0.2-0.4,0.2-0.6
		c0-0.6,0.3-1.2,0.6-1.8c0.4-0.9,0.8-1.8,1.2-2.8c0.2-0.6,0.4-1.1,0.5-1.7C154.1,52.9,153.5,52.4,152.6,52.5z M135.7,57.1
		c-0.7,1-1.5,1.8-2.4,2.5c-0.3,0.2-0.6,0.4-0.9,0.4c-0.5,0.1-0.7-0.1-0.7-0.6c0-0.5,0.1-0.9,0.3-1.3c0.9-2.1,2.1-4.1,3.8-5.6
		c0.3-0.3,0.7-0.6,1.1-0.8c0.5-0.2,0.7-0.1,0.7,0.4c0,0.1,0,0.2,0,0.3C137.4,54.1,136.7,55.7,135.7,57.1z"/>
	<path fill="#F5F5F4" d="M80.5,51.7c-0.1-0.3-0.5-0.4-0.7-0.4c-1.5,0.1-2.8,0.4-4,1.4c-0.5,0.5-1,0.9-1.3,1.5
		c-0.2,0.3-0.3,0.3-0.6,0c-0.4-0.5-0.8-0.5-1.1,0.1c-0.2,0.4-0.3,0.8-0.5,1.2c-0.1,0.2-0.2,0.4-0.4,0.5c-0.9,0.6-1.8,1.2-2.8,1.7
		c-0.6,0.3-1.2,0.6-1.9,0.7c-0.9,0.1-1.2-0.2-1.1-1.1c0-0.1,0-0.1,0-0.2c0.1-0.7,0.3-1.3,0.6-2c0.3-0.6,0.5-1.3,0.5-2
		c0.1-1.6-1.2-2.8-2.7-2.7c-0.7,0.1-1.4,0.4-2,0.8C61,52.5,60,54,59.1,55.8c-0.5,1-0.8,2-0.9,3.2c-0.1,1.4,0.8,2.3,2.2,2.3
		c0.6,0,1.1-0.2,1.6-0.5c1-0.6,1.8-1.3,2.5-2.2c0.2-0.2,0.3-0.3,0.5,0c0.4,0.7,1.1,1.1,2,1.1c1.1,0.1,2-0.3,3-0.7
		c0.6-0.3,1.2-0.6,1.8-1c0,0.3-0.1,0.4-0.1,0.5c-0.1,0.6-0.2,1.2-0.2,1.8c0,0.2,0,0.4,0.2,0.5c0.5,0.3,0.7,0.2,1-0.3
		c0.4-0.7,0.8-1.4,1.2-2.1c0.9-1.7,1.9-3.3,3.3-4.6c0.8-0.7,1.7-1.3,2.9-1.3c0.1,0,0.2-0.1,0.3-0.2C80.5,52.2,80.7,52,80.5,51.7z
		 M65.4,52.2c0,0.1,0,0.2,0,0.3c-0.1,2-1.1,3.7-2.3,5.2c-0.6,0.7-1.2,1.4-2,1.8c-0.2,0.1-0.4,0.3-0.7,0.4c-0.6,0.2-1,0-0.9-0.7
		c0.1-1,0.5-1.9,1-2.7c0.8-1.5,1.8-2.9,3-4c0.3-0.3,0.7-0.6,1.1-0.8C65.2,51.4,65.4,51.6,65.4,52.2z"/>
	<path fill="#F5F5F4" d="M33.5,45.5c-0.8-0.3-1.7-0.2-2.6-0.1c-2.3,0.3-4.3,1.1-6.3,2.2c-0.8,0.4-1.7,0.9-2.4,1.5
		c-0.3,0.3-0.4,0.6-0.2,1c0.2,0.3,0.5,0.5,1,0.4c0.3-0.1,0.5-0.2,0.9-0.3c-0.1,0.2-0.2,0.4-0.2,0.5c-0.5,0.9-0.9,1.8-1.4,2.7
		c-1,1.9-2.1,3.7-2.8,5.7c-0.2,0.5-0.4,0.9-0.3,1.4c0,0.4,0.1,0.8,0.5,0.9c0.4,0.1,0.6-0.3,0.7-0.5c0.1-0.2,0.2-0.3,0.3-0.5
		c0.3-0.7,0.6-1.4,0.8-2c0.3-0.8,0.6-1.6,1.1-2.2c0.3-0.4,0.3-0.4,0.7-0.1c0.3,0.2,0.7,0.5,1,0.7c1.1,0.8,2.3,1.4,3.4,2.2
		c0.8,0.6,1.6,1.3,2.5,2c0.2,0.1,0.4,0.3,0.6,0.1c0.3-0.2,0.4-0.4,0.4-0.7c0-0.2-0.1-0.4-0.3-0.6c-0.2-0.3-0.5-0.5-0.8-0.7
		c-1.2-0.9-2.6-1.7-3.9-2.5c-0.8-0.5-1.5-1-2.2-1.6c-0.2-0.3-0.2-0.4,0.1-0.5c1.2-0.4,2.3-0.8,3.4-1.3c2-0.9,3.9-1.8,5.5-3.2
		c0.6-0.5,1.2-1,1.5-1.7C35.1,46.8,34.7,45.9,33.5,45.5z M32.8,47.6c-0.2,0.3-0.4,0.5-0.6,0.7c-2.1,1.8-4.4,3.3-7.1,4.1
		c-0.3,0.1-0.6,0.2-0.8,0.1c-0.1-0.2,0.1-0.5,0.2-0.7c0.4-1.1,0.9-2.1,1.8-2.9c1-0.9,2.2-1.3,3.5-1.5c0.6-0.1,1.2-0.1,1.9-0.2
		c0,0,0,0,0,0c0.3,0,0.7,0,1,0C33,47.2,33,47.3,32.8,47.6z"/>
	<path fill="#F5F5F4" d="M101,60.6c0-0.4,0.2-1,0.4-1.4c1.4-3.4,2.9-6.7,4.6-9.9c0.5-0.9,1-1.9,1.3-2.9c0.2-0.5,0.5-0.7,0.8-0.6
		c0.4,0.2,0.7,0.7,0.5,1.1c-0.3,0.7-0.7,1.4-1,2.1c-0.2,0.5-0.5,1-0.7,1.4c-0.1,0.3-0.1,0.4,0.2,0.3c1.2-0.2,2.2-0.6,3.3-1.1
		c1.7-0.8,3.4-1.7,5.1-2.7c0.3-0.2,0.7-0.4,1.1-0.5c0.2-0.1,0.4-0.2,0.6,0.1c0.2,0.2,0.1,0.4,0,0.6c-0.4,0.6-0.8,1.1-1.5,1.5
		c-1.7,1-3.5,1.7-5.3,2.3c-1,0.4-2,0.8-3,1.4c-0.5,0.3-0.5,0.3-0.1,0.6c2.5,2.2,4.8,4.5,6.8,7.2c0.4,0.6,0.9,1.2,1,2
		c0.1,0.2,0,0.5-0.1,0.7c-0.2,0.5-0.7,0.4-1.1-0.1c-0.5-0.8-1.1-1.6-1.7-2.3c-1.6-1.9-3.3-3.7-5.1-5.4c-0.4-0.3-0.8-0.7-1.2-0.9
		c-0.5-0.3-0.8-0.2-1.2,0.3c-0.5,0.8-0.8,1.7-1.1,2.6c-0.4,1.1-0.9,2.2-1.4,3.3c-0.2,0.3-0.4,0.6-0.7,0.8c-0.2,0.1-0.4,0.2-0.6,0.1
		C101,61.1,101,60.9,101,60.6z"/>
	<path fill="#F5F5F4" d="M160.4,52.2c-0.4-0.6-0.9-0.8-1.6-0.5c-0.5,0.2-1,0.5-1.4,0.8c-1.1,1-2,2.3-2.6,3.6c-0.3,0.6-0.5,1.3-0.5,2
		c0,0.7,0.4,1.1,1.2,1.1c0.4,0,0.8-0.1,1.2-0.3c0.6-0.3,1.2-0.6,1.8-1c0.2-0.1,0.3-0.1,0.3,0.1c0,0.3,0,0.7-0.1,1
		c-0.5,1.8-1.4,3.2-2.7,4.5c-0.7,0.8-1.6,1.4-2.6,1.8c-1,0.3-1.6,0-2-1c-0.3-0.7-0.3-1.4-0.3-2.1c0-0.4-0.3-0.6-0.7-0.4
		c-0.2,0.1-0.3,0.4-0.4,0.6c-0.1,0.3-0.1,0.7-0.1,1.1c0.2,2.1,1.6,3.3,3.8,3.1c1.4-0.2,2.5-1,3.4-2c1.3-1.4,2.2-2.9,2.9-4.7
		c0.7-1.7,1.2-3.4,1.2-5.3C161,53.9,160.9,53,160.4,52.2z M158.7,54.8c-0.5,1-1.1,1.8-2,2.5c-0.2,0.2-0.6,0.5-0.8,0.3
		c-0.2-0.2-0.1-0.6,0.1-0.9c0.8-1.2,1.8-2.2,2.9-3.1c0,0,0.1,0,0.1,0C159.1,54,158.9,54.4,158.7,54.8z"/>
	<path fill="#F5F5F4" d="M120.9,57.5c-0.8,0.7-1.3,1.4-2,2.1c-0.3,0.4-0.6,0.7-1,1.1c-0.4,0.4-0.9,0.4-1.4,0.1
		c-0.5-0.3-0.7-0.7-0.5-1.2c0.5-1.7,1.1-3.4,1.7-5.1c0.1-0.3,0.3-0.7,0.8-0.6c0.4,0.1,0.6,0.4,0.7,0.7c0.1,0.4,0,0.8-0.1,1.1
		c-0.2,0.6-0.5,1.2-0.7,1.8c0,0.1-0.1,0.2-0.1,0.3c0.2,0,0.3-0.2,0.4-0.3c0.8-0.9,1.5-1.8,2.2-2.7c0.2-0.2,0.4-0.5,0.7-0.6
		c0.4-0.2,0.7-0.1,0.9,0.3c0.1,0.3,0.2,0.6,0.2,1c0,1-0.1,2-0.1,3c0.2-0.1,0.3-0.3,0.4-0.5c1.2-1.8,2.3-3.6,3.9-5.1
		c0.4-0.4,0.9-0.7,1.4-1c0.3-0.2,0.7-0.3,1-0.3c0.5,0,0.7,0.2,0.4,0.7c-0.5,0.8-1.1,1.6-1.8,2.3c-1.7,1.8-3,3.8-4.3,5.8
		c-0.1,0.1-0.2,0.3-0.3,0.4c-0.3,0.4-0.6,0.4-1,0.1c-0.6-0.4-0.9-1-1.1-1.7C121,58.8,121,58.2,120.9,57.5z"/>
	<path fill="#F5F5F4" d="M91.6,49.2c-0.1-0.4-0.5-0.6-0.8-0.6c-0.4-0.1-0.4,0.3-0.5,0.5c-0.8,1.5-1.5,3-2.2,4.5
		c-0.1,0.3-0.3,0.4-0.6,0.3c-0.7-0.2-1.5-0.2-2.2-0.1c-2.3,0.3-4.5,2.2-5,4.5c-0.4,1.7,0.6,2.7,2.3,2.3c0.7-0.2,1.3-0.5,1.9-0.8
		c0.8-0.5,1.5-1,2.3-1.6c0.1,0.2,0.1,0.4,0.1,0.5c0.3,1.1,0.9,1.9,1.9,2.4c0.3,0.1,0.6,0.3,0.9,0.2c0.3,0,0.4-0.2,0.5-0.4
		c0.1-0.2-0.1-0.4-0.2-0.5c-0.3-0.3-0.7-0.5-1.1-0.8c-0.2-0.2-0.4-0.3-0.4-0.6c-0.1-1-0.2-2.1,0.3-3.1c0.7-1.3,1.3-2.6,2-3.9
		c0.2-0.5,0.5-0.9,0.6-1.4C91.6,50,91.7,49.6,91.6,49.2z M86.7,55.8c-1.1,1.4-2.6,2.6-4.2,3.5c-0.8,0.4-0.9,0.3-0.9-0.8
		c0.1-0.8,0.6-1.7,1.5-2.3c1-0.8,2.1-1.2,3.3-1C87.1,55.2,87.1,55.3,86.7,55.8z"/>
	<path fill="#F5F5F4" d="M51.4,56.1c0.6-0.3,1.2-0.7,1.7-1.1c0.5-0.3,0.9-0.7,1.4-1c0.3-0.2,0.6-0.2,0.9,0c0.7,0.3,1.1,0.9,1.1,1.6
		c0,0.7,0,1.4,0,2.1c0,0.6,0.1,1.1,0.5,1.6c0.1,0.2,0.3,0.4,0.4,0.6c0.1,0.2,0.3,0.4,0.1,0.6c-0.1,0.2-0.4,0.2-0.6,0.2
		c-0.8,0-1.6-0.7-1.8-1.7c-0.2-1-0.2-2-0.3-3c0-0.5-0.2-0.6-0.6-0.3c-1,0.7-2,1.5-2.9,2.4c-0.9,0.8-1.7,1.7-2.6,2.6
		c-0.3,0.3-0.8,0.3-1.2,0.2c-0.4-0.2-0.4-0.6-0.2-1c0.8-1.8,1.9-3.6,2.9-5.3c1.3-2.2,2.5-4.4,3.9-6.5c0.4-0.6,0.7-1.1,1.2-1.6
		c0.5-0.5,0.8-0.6,1.1-0.3c0.3,0.3,0.4,1,0.1,1.4c-0.8,1.3-1.7,2.5-2.5,3.8c-0.9,1.4-1.8,2.8-2.6,4.3C51.6,55.9,51.5,56,51.4,56.1z"
		/>
	<path fill="#F5F5F4" d="M41.9,53.5c-1.5,1.3-2.9,2.7-3.4,4.8c0,0.2,0,0.3,0,0.5c0.1,0.5,0.3,0.7,0.8,0.7c1.3-0.1,2.5-0.6,3.7-1
		c1-0.4,2.1-0.8,3.1-1.2c0.2-0.1,0.5-0.2,0.8-0.2c0.5,0,0.7,0.5,0.5,0.9c-0.2,0.3-0.4,0.5-0.7,0.7c-2.1,1.3-4.4,2.1-6.8,2.4
		c-0.4,0.1-0.8,0-1.2-0.1c-1.4-0.5-1.8-1.5-1.5-3c0.2-1.3,1-2.4,1.8-3.5c0.7-1,1.6-1.8,2.6-2.5c0.3-0.2,0.7-0.4,1-0.5
		c0.5-0.2,1-0.2,1.4,0.2c0.4,0.4,0.4,0.9,0.3,1.4c-0.2,0.8-0.7,1.5-1.5,2c-0.2,0.1-0.4,0.2-0.7,0.2c-0.4,0-0.7-0.5-0.5-0.9
		C41.7,54,41.9,53.8,41.9,53.5z"/>
	<g>
		<path fill="#F5F5F4" d="M35.7,54.7c-0.1,1.1-0.5,2.1-0.9,3.1c-0.4,1.1-0.9,2.1-1.5,3.1c-0.2,0.4-0.5,0.5-0.9,0.3
			C32,61,31.9,60.8,32,60.3c0.6-1.8,1.2-3.6,2.1-5.3c0.1-0.3,0.3-0.5,0.5-0.8c0.2-0.2,0.4-0.5,0.7-0.3
			C35.7,54.1,35.6,54.4,35.7,54.7z"/>
		<path fill="#F5F5F4" d="M35.2,51.2c0-0.5,0.2-0.7,0.8-0.7c0.5,0,0.9,0.4,0.8,0.9c0,0.6-0.3,1-0.8,1C35.6,52.4,35.2,51.8,35.2,51.2
			z"/>
	</g>
</g>
</svg>
